<svg enable-background="new 0 0 128 128" viewBox="0 0 128 128" xmlns="http://www.w3.org/2000/svg" xmlns:xlink="http://www.w3.org/1999/xlink"><linearGradient id="a" gradientTransform="matrix(1 0 0 -1 0 127.8898)" gradientUnits="userSpaceOnUse" x1="64.415" x2="64.415" y1="91.5818" y2="11.7198"><stop offset=".2493" stop-color="#757575"/><stop offset=".8025" stop-color="#444"/></linearGradient><path d="m88.79 4c.01 0 .07.68.23 1.05 4.69 11.11-13.5 14.47-19.76 19.03-9.4 6.84-9.6 16.87-8.99 24.52.3 3.82 6.3 3.86 6 0-.41-5.22 1.18-15.28 5.27-18.74 4.05-3.43 9.48-4.75 14.07-7.26 6.66-3.66 12.28-10.6 9.4-18.6z" fill="#504f4f"/><path d="m119.88 55.77c-3.35-12.93-21.94-19.53-34.62-13.31-8.37 4.11-11.85 5.69-21.18 5.69s-12.68-1.48-21-5.48c-12.76-6.13-31.33.6-34.53 13.58-3.68 14.9-4.29 34.05-4.29 51.81 0 15.92 16.77 21.75 28.12 8.47 7.09-8.3 19.72-11.67 31.3-11.67s25.12 3.13 32.5 11.67c11.47 13.28 28.39 7.45 28.39-8.47-.01-18.07-.82-37.37-4.69-52.29z" fill="url(#a)"/><circle cx="48.08" cy="92.92" fill="#424242" r="11.83"/><circle cx="48.08" cy="92.92" fill="#757575" r="9.08"/><circle cx="80.08" cy="92.92" fill="#424242" r="11.83"/><circle cx="80.08" cy="92.92" fill="#757575" r="9.08"/><circle cx="31.75" cy="65.25" fill="#757575" r="20"/><circle cx="31.75" cy="65.25" fill="#424242" r="16"/><path d="m31.75 51.25c7.72 0 14 6.28 14 14s-6.28 14-14 14-14-6.28-14-14 6.28-14 14-14m0-2c-8.84 0-16 7.16-16 16s7.16 16 16 16 16-7.16 16-16-7.16-16-16-16z" fill="#eee" opacity=".2"/><path d="m41.51 61h-5.51v-5.49c0-2.51-1.99-4.57-4.5-4.57s-4.5 2.06-4.5 4.57v5.49h-5.02c-2.51 0-4.57 1.99-4.57 4.5s2.06 4.5 4.57 4.5h5.02v5.04c0 2.51 1.99 4.57 4.5 4.57s4.5-2.06 4.5-4.57v-5.04h5.51c2.51 0 4.57-1.99 4.57-4.5s-2.06-4.5-4.57-4.5z" fill="#9e9e9e"/><path d="m31.5 51.94c1.98 0 3.5 1.64 3.5 3.57v5.35c0 .55.58 1.14 1.14 1.14h5.37c1.94 0 3.57 1.52 3.57 3.5s-1.64 3.5-3.57 3.5h-5.37c-.56 0-1.14.6-1.14 1.15v4.89c0 1.94-1.52 3.57-3.5 3.57s-3.5-1.64-3.5-3.57v-4.89c0-.55-.6-1.15-1.15-1.15h-4.87c-1.94 0-3.57-1.52-3.57-3.5s1.64-3.5 3.57-3.5h4.87c.55 0 1.15-.58 1.15-1.14v-5.35c0-1.93 1.52-3.57 3.5-3.57m0-1c-2.51 0-4.5 2.06-4.5 4.57v5.49h-5.02c-2.51 0-4.57 1.99-4.57 4.5s2.06 4.5 4.57 4.5h5.02v5.04c0 2.51 1.99 4.57 4.5 4.57s4.5-2.06 4.5-4.57v-5.04h5.51c2.51 0 4.57-1.99 4.57-4.5s-2.06-4.5-4.57-4.5h-5.51v-5.49c0-2.51-1.99-4.57-4.5-4.57z" fill="#424242" opacity=".2"/><circle cx="97.28" cy="53.44" fill="#ffd54f" r="6"/><circle cx="97.28" cy="78.81" fill="#4caf50" r="6"/><circle cx="85.09" cy="66.12" fill="#2196f3" r="6"/><circle cx="109.47" cy="66.12" fill="#f44336" r="6"/><g fill="#424242"><g opacity=".2"><path d="m97.28 49.44c2.21 0 4 1.79 4 4s-1.79 4-4 4-4-1.79-4-4 1.8-4 4-4m0-2c-3.31 0-6 2.69-6 6s2.69 6 6 6 6-2.69 6-6-2.69-6-6-6z"/><path d="m97.28 74.81c2.21 0 4 1.79 4 4s-1.79 4-4 4-4-1.79-4-4 1.8-4 4-4m0-2c-3.31 0-6 2.69-6 6s2.69 6 6 6 6-2.69 6-6-2.69-6-6-6z"/><path d="m85.09 62.12c2.21 0 4 1.79 4 4s-1.79 4-4 4-4-1.79-4-4 1.8-4 4-4m0-2c-3.31 0-6 2.69-6 6s2.69 6 6 6 6-2.69 6-6-2.68-6-6-6z"/><path d="m109.47 62.12c2.21 0 4 1.79 4 4s-1.79 4-4 4-4-1.79-4-4 1.79-4 4-4m0-2c-3.31 0-6 2.69-6 6s2.69 6 6 6 6-2.69 6-6-2.69-6-6-6z"/></g><path d="m48.08 85.83c3.91 0 7.08 3.18 7.08 7.08 0 3.91-3.18 7.08-7.08 7.08-3.91 0-7.08-3.18-7.08-7.08s3.18-7.08 7.08-7.08m0-2c-5.02 0-9.08 4.07-9.08 9.08 0 5.02 4.07 9.08 9.08 9.08 5.02 0 9.08-4.07 9.08-9.08.01-5.01-4.06-9.08-9.08-9.08z" opacity=".2"/><path d="m80.08 85.83c3.91 0 7.08 3.18 7.08 7.08 0 3.91-3.18 7.08-7.08 7.08s-7.08-3.17-7.08-7.07c0-3.91 3.18-7.09 7.08-7.09m0-2c-5.02 0-9.08 4.07-9.08 9.08 0 5.02 4.07 9.08 9.08 9.08s9.08-4.07 9.08-9.08c.01-5.01-4.06-9.08-9.08-9.08z" opacity=".2"/></g></svg>